<?xml version="1.0" encoding="UTF-8"?>
<svg xmlns="http://www.w3.org/2000/svg" xmlns:xlink="http://www.w3.org/1999/xlink" width="666pt" height="90.54pt" viewBox="0 0 666 90.54" version="1.1">
<defs>
<clipPath id="clip1">
  <path d="M 0 0 L 666 0 L 666 90.539063 L 0 90.539063 Z M 0 0 "/>
</clipPath>
</defs>
<g id="surface1">
<g clip-path="url(#clip1)" clip-rule="nonzero">
<path style=" stroke:none;fill-rule:evenodd;fill:rgb(0%,52.49939%,34.498596%);fill-opacity:1;" d="M 44.421875 0.914063 L 44.421875 19.273438 L 36.503906 45.625 L 44.421875 45.625 L 44.421875 58.226563 L 33.335938 58.226563 L 28.296875 74.28125 L 38.808594 74.28125 L 38.808594 87.960938 L 0 87.960938 L 0 73.992188 L 10.367188 73.992188 L 33.191406 0.914063 Z M 287.0625 1.417969 L 287.0625 20.785156 L 278.855469 47.496094 L 287.0625 47.496094 L 287.0625 59.234375 L 275.902344 59.234375 L 271.152344 74.136719 L 283.246094 74.136719 L 283.246094 87.960938 L 216.503906 87.960938 L 216.503906 74.136719 L 225.503906 74.136719 L 211.753906 49.152344 L 201.457031 59.378906 L 201.457031 74.136719 L 211.175781 74.136719 L 211.175781 87.960938 L 167.976563 87.960938 L 167.976563 74.136719 L 177.550781 74.136719 L 177.550781 15.386719 L 164.230469 15.386719 L 164.230469 36.050781 L 150.695313 35.90625 C 146.449219 15.960938 115.054688 12.867188 115.054688 25.105469 C 115.054688 38.28125 165.816406 35.042969 166.246094 61.035156 C 166.246094 95.523438 127.511719 94.296875 107.710938 84.722656 L 105.335938 87.960938 L 49.464844 87.960938 L 49.464844 74.355469 L 59.398438 74.355469 L 55.222656 58.226563 L 44.421875 58.226563 L 44.421875 45.625 L 52.273438 45.625 L 44.855469 17.761719 L 44.421875 19.273438 L 44.421875 0.914063 L 66.023438 0.914063 L 85.96875 74.210938 L 89.566406 74.210938 L 89.566406 54.410156 L 103.609375 54.410156 C 105.839844 70.25 122.398438 77.019531 135 71.113281 C 140.542969 68.234375 140.183594 61.824219 134.28125 59.59375 C 127.871094 57.363281 119.664063 55.347656 112.894531 53.617188 C 77.542969 44.042969 89.351563 1.632813 118.441406 0.121094 C 129.097656 -0.453125 138.886719 0.914063 149.6875 7.683594 L 152.0625 0.984375 L 211.105469 0.984375 L 211.105469 15.386719 L 201.457031 15.386719 L 201.457031 37.5625 L 224.28125 15.386719 L 216.433594 15.386719 L 216.433594 1.128906 L 260.425781 1.128906 L 260.425781 15.386719 L 247.535156 15.386719 L 231.121094 32.160156 L 255.023438 74.355469 L 277.992188 1.417969 Z M 516.3125 47.355469 L 524.375 47.355469 L 524.375 59.378906 L 513.214844 59.378906 L 508.535156 74.136719 L 519.550781 74.136719 L 519.550781 87.960938 L 458.207031 87.960938 L 428.183594 26.472656 L 428.183594 74.136719 L 440.785156 74.136719 L 440.785156 87.960938 L 401.183594 87.960938 L 401.183594 74.136719 L 412.847656 74.136719 L 412.847656 15.386719 L 394.632813 15.386719 L 371.808594 51.816406 L 371.808594 74.136719 L 386.136719 74.136719 L 386.136719 87.960938 L 291.457031 87.960938 L 291.457031 74.136719 L 302.039063 74.136719 L 298.222656 59.234375 L 287.0625 59.234375 L 287.0625 47.496094 L 295.199219 47.496094 L 287.785156 18.265625 L 287.0625 20.785156 L 287.0625 1.417969 L 307.367188 1.417969 L 327.097656 74.136719 L 348.191406 74.136719 L 348.191406 51.746094 L 328.464844 15.386719 L 318.3125 15.386719 L 318.3125 1.417969 L 364.464844 1.417969 L 364.464844 15.386719 L 356.617188 15.386719 L 366.121094 35.617188 L 378.289063 15.386719 L 370.367188 15.386719 L 370.367188 1.417969 L 443.015625 1.417969 L 469.441406 55.777344 L 469.441406 15.386719 L 456.984375 15.386719 L 456.984375 1.273438 L 496.871094 1.273438 L 496.871094 15.386719 L 483.910156 15.386719 L 483.910156 74.136719 L 492.984375 74.136719 L 514.367188 1.417969 L 524.375 1.417969 L 524.375 19.777344 Z M 524.375 47.355469 L 532.367188 47.355469 L 524.808594 18.265625 L 524.375 19.777344 L 524.375 1.417969 L 543.167969 1.417969 L 563.761719 74.136719 L 584.351563 74.136719 L 584.351563 15.386719 L 573.480469 15.386719 L 573.480469 1.417969 L 618.335938 1.417969 L 618.335938 15.386719 L 609.40625 15.386719 L 609.40625 39.074219 L 632.953125 15.386719 L 623.953125 15.386719 L 623.953125 1.417969 L 666 1.417969 L 666 15.386719 L 655.992188 15.386719 L 637.273438 35.042969 L 658.945313 74.136719 L 665.640625 74.136719 L 665.640625 87.960938 L 623.734375 87.960938 L 623.734375 74.136719 L 632.230469 74.136719 L 619.703125 50.234375 L 609.40625 60.746094 L 609.40625 74.136719 L 618.335938 74.136719 L 618.335938 87.960938 L 527.472656 87.960938 L 527.472656 74.136719 L 539.136719 74.136719 L 535.246094 59.378906 L 524.375 59.378906 "/>
</g>
</g>
</svg>
